<?xml version="1.0" encoding="utf-8"?>
<!-- Generator: Adobe Illustrator 24.0.0, SVG Export Plug-In . SVG Version: 6.00 Build 0)  -->
<svg version="1.1" id="Layer_15" xmlns="http://www.w3.org/2000/svg" xmlns:xlink="http://www.w3.org/1999/xlink" x="0px" y="0px"
	 viewBox="0 0 50.7 70" style="enable-background:new 0 0 50.7 70;" xml:space="preserve">
<style type="text/css">
	.st0{fill:#D1D9EE;}
	.st1{fill:#25385D;}
	.st2{fill:#2EE807;}
</style>
<title>bbb</title>
<path class="st0" d="M25.4,0c-3.8-0.1-7.5,1.5-10.2,4.2c-2.8,2.7-4.3,6.4-4.2,10.2v23.1c-0.1,3.8,1.5,7.5,4.2,10.2
	c2.7,2.8,6.4,4.3,10.2,4.2c3.8,0.1,7.5-1.5,10.2-4.2c2.8-2.7,4.3-6.4,4.2-10.2V14.4c0.1-3.8-1.5-7.5-4.2-10.2
	C32.9,1.5,29.2-0.1,25.4,0L25.4,0z"/>
<path class="st1" d="M25.4,4.7c2.6-0.1,5.1,1,6.9,2.9c1.9,1.8,2.9,4.3,2.9,6.9v23.1c0.1,2.6-1,5.1-2.9,6.9c-1.8,1.9-4.3,2.9-6.9,2.9
	c-2.6,0.1-5.1-1-6.9-2.9c-1.9-1.8-2.9-4.3-2.9-6.9V14.4c-0.1-2.6,1-5.1,2.9-6.9C20.3,5.6,22.8,4.6,25.4,4.7 M25.4,0
	c-3.8-0.1-7.5,1.5-10.2,4.2c-2.8,2.7-4.3,6.4-4.2,10.2v23.1c-0.1,3.8,1.5,7.5,4.2,10.2c2.7,2.8,6.4,4.3,10.2,4.2
	c3.8,0.1,7.5-1.5,10.2-4.2c2.8-2.7,4.3-6.4,4.2-10.2V14.4c0.1-3.8-1.5-7.5-4.2-10.2C32.9,1.5,29.2-0.1,25.4,0L25.4,0L25.4,0z"/>
<path class="st2" d="M42.4,65.3H27.7v-2.7c13-1,23-11.8,23-24.8c0-1.3-1-2.3-2.3-2.3c-1.3,0-2.3,1-2.3,2.3c0,11.2-8.7,15.9-19.9,16
	L22.7,54C11.5,53.9,7.4,49,7.5,37.8c0-0.7-0.8-2.3-1.5-2.6C4.2,34.1,1,35.8,1,37.6C-0.7,50.7,10,61.7,23,62.7v2.7H8.3
	c-0.7,0-1.4,0.4-1.8,1c-1,1.8,0.2,3.7,2,3.7h33.8c1.7,0,3-1.9,2-3.7C43.9,65.7,43.1,65.3,42.4,65.3z"/>
</svg>
